<?xml version="1.0" encoding="UTF-8"?>
<svg width="202px" height="34px" viewBox="0 0 202 34" version="1.1" xmlns="http://www.w3.org/2000/svg" xmlns:xlink="http://www.w3.org/1999/xlink">
    <!-- Generator: Sketch 40.3 (33839) - http://www.bohemiancoding.com/sketch -->
    <title>logo</title>
    <desc>Created with Sketch.</desc>
    <defs></defs>
    <g id="Final-Brand" stroke="none" stroke-width="1" fill="none" fill-rule="evenodd">
        <g id="Palette--(Skinny)" transform="translate(-99.000000, -83.000000)">
            <g id="1">
                <g id="logo" transform="translate(99.000000, 83.000000)">
                    <path d="M49.3594246,11.144 C48.8038024,11.144 48.3533816,10.7012593 48.3533816,10.1494688 L48.3533816,7.85053125 C48.3533816,7.30126681 48.7957735,6.856 49.3464835,6.856 L59.0082796,6.856 C59.5567547,6.856 60.0013816,7.3087106 60.0013816,7.85896725 L60.0013816,21.448 C60.0013816,24.11468 59.3133885,26.1093267 57.9373816,27.432 C56.5613747,28.7546733 54.796059,29.416 52.6413816,29.416 C49.9533681,29.416 46.4320626,26.866933 46.4320626,26.866933 C45.9732902,26.560452 45.8593886,25.9552495 46.1895465,25.4987349 L47.6052167,23.5412651 C47.9300512,23.0921112 48.5462382,22.9948203 49.005167,23.3226016 C49.005167,23.3226016 50.9453742,24.904 52.4173816,24.904 C53.1213851,24.904 53.7240457,24.6320027 54.2253816,24.088 C54.7267174,23.5439973 54.9773816,22.7280054 54.9773816,21.64 L54.9773816,12.1504006 C54.9773816,11.5945809 54.5220872,11.144 53.9713385,11.144 L49.3594246,11.144 Z M74.6813816,13.0011226 C74.6813816,12.4526361 75.1273034,12.008 75.6825751,12.008 L78.512188,12.008 C79.065132,12.008 79.5133816,12.4508671 79.5133816,13.0080187 L79.5133816,28.2239813 C79.5133816,28.7762764 79.0674597,29.224 78.512188,29.224 L75.6825751,29.224 C75.1296312,29.224 74.6813816,28.7859355 74.6813816,28.2208542 L74.6813816,26.952 C73.4867089,28.6373418 71.945391,29.48 70.0573816,29.48 C68.1693721,29.48 66.585388,28.8880059 65.3053816,27.704 C64.0253752,26.5199941 63.3853816,24.765345 63.3853816,22.44 L63.3853816,13.008264 C63.3853816,12.4558335 63.8313034,12.008 64.3865751,12.008 L67.216188,12.008 C67.769132,12.008 68.2173816,12.460224 68.2173816,13.0113962 L68.2173816,21.384 C68.2173816,24.0293466 69.1880385,25.352 71.1293816,25.352 C72.0893864,25.352 72.9213781,25.0053368 73.6253816,24.312 C74.3293851,23.6186632 74.6813816,22.6106733 74.6813816,21.288 L74.6813816,13.0011226 Z M87.8573816,28.2327894 C87.8573816,28.7802199 87.4144128,29.224 86.8628185,29.224 L84.0519447,29.224 C83.5026626,29.224 83.0573816,28.7811329 83.0573816,28.2239813 L83.0573816,13.0080187 C83.0573816,12.4557236 83.5003503,12.008 84.0519447,12.008 L86.8628185,12.008 C87.4121005,12.008 87.8573816,12.4533125 87.8573816,13.0129854 L87.8573816,13.928 C89.3080555,12.4559926 90.9400392,11.72 92.7533816,11.72 C94.566724,11.72 96.0867088,12.3599936 97.3133816,13.64 C98.5400544,14.9200064 99.1533816,16.626656 99.1533816,18.76 L99.1533816,28.2206677 C99.1533816,28.7747928 98.7104128,29.224 98.1588185,29.224 L95.3479447,29.224 C94.7986626,29.224 94.3533816,28.7807297 94.3533816,28.2195733 L94.3533816,19.496 C94.3533816,16.8506534 93.3827246,15.528 91.4413816,15.528 C90.4813768,15.528 89.6440518,15.8746632 88.9293816,16.568 C88.2147113,17.2613368 87.8573816,18.2799933 87.8573816,19.624 L87.8573816,28.2327894 Z M107.305382,28.2239813 C107.305382,28.7762764 106.862413,29.224 106.310818,29.224 L103.499945,29.224 C102.950663,29.224 102.505382,28.7811329 102.505382,28.2239813 L102.505382,13.0080187 C102.505382,12.4557236 102.94835,12.008 103.499945,12.008 L106.310818,12.008 C106.860101,12.008 107.305382,12.4508671 107.305382,13.0080187 L107.305382,28.2239813 Z M102.905382,5.816 C103.449384,5.27199728 104.116044,5 104.905382,5 C105.694719,5 106.361379,5.27199728 106.905382,5.816 C107.449384,6.36000272 107.721382,7.02666272 107.721382,7.816 C107.721382,8.60533728 107.449384,9.27199728 106.905382,9.816 C106.361379,10.3600027 105.694719,10.632 104.905382,10.632 C104.116044,10.632 103.449384,10.3600027 102.905382,9.816 C102.361379,9.27199728 102.089382,8.60533728 102.089382,7.816 C102.089382,7.02666272 102.361379,6.36000272 102.905382,5.816 Z M118.961382,25.384 C120.209388,25.384 121.233378,24.9413378 122.033382,24.056 C122.833386,23.1706622 123.233382,22.024007 123.233382,20.616 C123.233382,19.207993 122.833386,18.0560045 122.033382,17.16 C121.233378,16.2639955 120.209388,15.816 118.961382,15.816 C117.713375,15.816 116.689386,16.2639955 115.889382,17.16 C115.089378,18.0560045 114.689382,19.207993 114.689382,20.616 C114.689382,22.024007 115.089378,23.1706622 115.889382,24.056 C116.689386,24.9413378 117.713375,25.384 118.961382,25.384 Z M118.961382,29.48 C116.348035,29.48 114.17739,28.6266752 112.449382,26.92 C110.721373,25.2133248 109.857382,23.1120125 109.857382,20.616 C109.857382,18.1199875 110.721373,16.0133419 112.449382,14.296 C114.17739,12.5786581 116.348035,11.72 118.961382,11.72 C121.574728,11.72 123.745373,12.5786581 125.473382,14.296 C127.20139,16.0133419 128.065382,18.1199875 128.065382,20.616 C128.065382,23.1120125 127.20139,25.2133248 125.473382,26.92 C123.745373,28.6266752 121.574728,29.48 118.961382,29.48 Z M139.673382,16.232 C138.244041,16.232 137.177385,16.7386616 136.473382,17.752 C135.769378,18.7653384 135.417382,20.1039917 135.417382,21.768 L135.417382,28.2184507 C135.417382,28.7738002 134.974413,29.224 134.422818,29.224 L131.611945,29.224 C131.062663,29.224 130.617382,28.7811329 130.617382,28.2239813 L130.617382,13.0080187 C130.617382,12.4557236 131.06035,12.008 131.611945,12.008 L134.422818,12.008 C134.972101,12.008 135.417382,12.4460645 135.417382,13.0111458 L135.417382,14.28 C136.036051,13.5759965 136.809377,12.9786691 137.737382,12.488 C138.665386,11.9973309 139.597409,11.8991132 139.597409,11.8991132 C140.134214,11.8001917 140.572567,12.1691234 140.576483,12.721359 L140.59428,15.230641 C140.598202,15.7836763 140.159124,16.232 139.673382,16.232 L139.673382,16.232 Z M163.537382,17.928 C163.537382,21.4053507 162.497392,24.1573232 160.417382,26.184 C158.337371,28.2106768 155.16407,29.224 150.897382,29.224 L144.249224,29.224 C143.697026,29.224 143.249382,28.7771907 143.249382,28.2194393 L143.249382,7.86056073 C143.249382,7.30575716 143.696981,6.856 144.250429,6.856 L151.153382,6.856 C155.142735,6.856 158.204038,7.83199024 160.337382,9.784 C162.470726,11.7360098 163.537382,14.4506493 163.537382,17.928 Z M158.513382,18.056 C158.513382,15.8586557 157.900054,14.1680059 156.673382,12.984 C155.446709,11.7999941 153.564061,11.208 151.025382,11.208 L148.241382,11.208 L148.241382,24.808 L151.409382,24.808 C153.69206,24.808 155.446709,24.2320058 156.673382,23.08 C157.900054,21.9279942 158.513382,20.2533443 158.513382,18.056 Z M180.611086,25.9931794 C180.985698,26.3990096 180.91454,26.962634 180.440134,27.2456301 C180.440134,27.2456301 177.070728,29.48 174.457382,29.48 C171.844035,29.48 169.684057,28.6746747 167.977382,27.064 C166.270706,25.4533253 165.417382,23.2933469 165.417382,20.584 C165.417382,17.8746531 166.286706,15.720008 168.025382,14.12 C169.764057,12.519992 171.81737,11.72 174.185382,11.72 C176.553393,11.72 178.56404,12.4346595 180.217382,13.864 C181.870723,15.2933405 182.697382,17.2559875 182.697382,19.752 L182.697382,21.3149068 C182.697382,21.8655862 182.250934,22.312 181.692058,22.312 L170.153382,22.312 C170.302716,23.2506714 170.793377,24.0186637 171.625382,24.616 C172.457386,25.2133363 173.396043,25.512 174.441382,25.512 C176.126723,25.512 177.76202,24.3340714 177.76202,24.3340714 C178.225587,24.0479485 178.909729,24.1500434 179.279677,24.5508206 L180.611086,25.9931794 Z M174.265382,15.688 C173.316043,15.688 172.446719,15.9759971 171.657382,16.552 C170.868044,17.1280029 170.409382,17.9066618 170.281382,18.888 L177.833382,18.888 C177.726714,17.8639949 177.342718,17.0746694 176.681382,16.52 C176.020045,15.9653306 175.21472,15.688 174.265382,15.688 Z M190.790636,29.224 C190.239868,29.224 189.631618,28.8146547 189.426924,28.2966726 L183.343839,12.9033274 C183.14145,12.3911786 183.420388,11.976 183.975589,11.976 L186.971174,11.976 C187.522469,11.976 188.13224,12.3880079 188.334974,12.9008944 L191.891789,21.8991056 C192.0937,22.4099107 192.42024,22.4119921 192.622974,21.8991056 L196.179789,12.9008944 C196.3817,12.3900893 196.988388,11.976 197.543589,11.976 L200.539174,11.976 C201.090469,11.976 201.375618,12.3853453 201.170924,12.9033274 L195.087839,28.2966726 C194.88545,28.8088214 194.2666,29.224 193.724127,29.224 L190.790636,29.224 Z" id="JuniorDev" fill="#FFFFFF"></path>
                    <g id="lines">
                        <rect id="Rectangle-5" fill="#FBC02D" x="0" y="0" width="8" height="4" rx="2"></rect>
                        <rect id="Rectangle-5" fill="#FFFFFF" x="12" y="0" width="14" height="4" rx="2"></rect>
                        <rect id="Rectangle-5" fill="#FFFFFF" x="0" y="30" width="16" height="4" rx="2"></rect>
                        <rect id="Rectangle-5" fill="#EA80FC" x="20" y="30" width="8" height="4" rx="2"></rect>
                        <rect id="Rectangle-5" fill="#FFFFFF" x="6" y="10" width="16" height="4" rx="2"></rect>
                        <rect id="Rectangle-5" fill="#69F0AE" x="26" y="10" width="10" height="4" rx="2"></rect>
                        <rect id="Rectangle-5" fill="#FFFFFF" x="20" y="20" width="16" height="4" rx="2"></rect>
                        <rect id="Rectangle-5" fill="#FF5252" x="6" y="20" width="10" height="4" rx="2"></rect>
                    </g>
                </g>
            </g>
        </g>
    </g>
</svg>